<svg width="606" height="212" viewBox="0 0 606 212" fill="none" xmlns="http://www.w3.org/2000/svg">
<g clip-path="url(#clip0_331_13)">
<path d="M556 35C581.405 35 602 55.5949 602 81V131C602 156.405 581.405 177 556 177H171V35H556Z" stroke="#004F2A" stroke-width="8"/>
<path d="M105.71 0C134.93 0 161.37 11.8499 180.51 31.0098H553.51C582.25 31.0098 605.76 54.52 605.76 83.25V128.41C605.76 157.15 582.25 180.67 553.51 180.67H180.26C161.15 199.68 134.8 211.43 105.71 211.43C47.33 211.43 0 164.11 0 105.72C0.000148443 47.3299 47.3301 2.06181e-05 105.71 0ZM55.2305 31.1602V56.3203H121.9L93.3398 97.5801L91.75 99.8701L90.1602 102.17L50.3398 159.69V180.67H161.55V155.5H85.6299L90.71 148.17L92.0303 146.26L93.4297 144.24L157.6 51.6201V31.1602H55.2305ZM183.54 34.1797C200.85 52.9996 211.43 78.0098 211.43 105.72C211.43 133.43 200.76 158.64 183.31 177.49H553.51C566.57 177.49 578.87 172.37 588.17 163.07C597.47 153.78 602.59 141.47 602.59 128.41V83.25C602.59 70.2 597.47 57.8898 588.17 48.5898C578.87 39.2999 566.57 34.1797 553.51 34.1797H183.54Z" fill="#004F2A"/>
<path d="M105.71 0C134.93 0 161.37 11.8499 180.51 31.0098H553.51C582.25 31.0098 605.76 54.52 605.76 83.25V128.41C605.76 157.15 582.25 180.67 553.51 180.67H180.26C161.15 199.68 134.8 211.43 105.71 211.43C47.33 211.43 0 164.11 0 105.72C0.000148443 47.3299 47.3301 2.06181e-05 105.71 0ZM55.2305 31.1602V56.3203H121.9L93.3398 97.5801L91.75 99.8701L90.1602 102.17L50.3398 159.69V180.67H161.55V155.5H85.6299L90.71 148.17L92.0303 146.26L93.4297 144.24L157.6 51.6201V31.1602H55.2305ZM183.54 34.1797C200.85 52.9996 211.43 78.0098 211.43 105.72C211.43 133.43 200.76 158.64 183.31 177.49H553.51C566.57 177.49 578.87 172.37 588.17 163.07C597.47 153.78 602.59 141.47 602.59 128.41V83.25C602.59 70.2 597.47 57.8898 588.17 48.5898C578.87 39.2999 566.57 34.1797 553.51 34.1797H183.54Z" stroke="#004F2A"/>
<path d="M331.73 84.27C331.71 83.88 331.68 83.5001 331.64 83.1101C331.45 80.9101 331.11 78.8601 330.62 76.9701C330.1 74.9101 329.41 73.02 328.55 71.32C327.17 68.59 325.45 66.21 323.37 64.18C322.96 63.78 322.53 63.39 322.09 63.01C321.86 62.82 321.64 62.6401 321.41 62.4501C320.95 62.0901 320.48 61.7401 320 61.4001C319.75 61.2401 319.51 61.07 319.26 60.91C315.26 58.34 310.51 56.51 304.99 55.43C299.47 54.35 293.43 53.8 286.87 53.8C277.73 53.8 269.69 54.94 262.75 57.21C257.11 59.05 252.48 61.7901 248.86 65.4401C248.44 65.8701 248.03 66.3 247.64 66.75C247.25 67.19 246.87 67.6501 246.51 68.1201C245.96 68.8301 245.45 69.5601 244.98 70.3301C244.82 70.5801 244.67 70.84 244.52 71.1C244.33 71.45 244.13 71.81 243.95 72.17C243.59 72.89 243.25 73.6401 242.95 74.4101C241.43 78.2801 240.67 82.75 240.67 87.82H266.05C266.05 82.2 267.98 78.14 271.84 75.63C275.7 73.13 280.71 71.88 286.87 71.88C292.28 71.88 296.73 73.0601 300.22 75.43C300.65 75.73 301.06 76.0501 301.44 76.4101C301.63 76.5901 301.82 76.7701 302 76.9701C304.29 79.4901 305.45 83.3101 305.45 88.43V93.6101C291.16 93.8801 278.76 94.8601 268.23 96.5501C257.71 98.2401 249.57 101.39 243.82 105.99C242.74 106.85 241.76 107.8 240.88 108.82C240.3 109.5 239.76 110.22 239.26 110.97C236.54 115.12 235.18 120.33 235.18 126.61C235.18 133.24 236.81 138.74 240.06 143.11C243.31 147.47 247.52 150.74 252.7 152.9C257.88 155.07 263.41 156.15 269.3 156.15C277.36 156.15 284.29 154.81 290.12 152.14C295.94 149.47 301.11 145.9 305.65 141.43L306.56 154.43H331.85V87.92C331.85 86.66 331.81 85.45 331.73 84.27ZM305.04 124.88C302.2 128.4 298.46 131.38 293.82 133.81C289.18 136.25 283.82 137.47 277.73 137.47C272.72 137.47 268.86 136.34 266.15 134.07C263.44 131.8 262.09 128.7 262.09 124.78C262.09 119.16 265.29 115.07 271.69 112.49C278.08 109.92 289.2 108.53 305.04 108.33V124.88Z" fill="#004F2A"/>
<path d="M578.12 71.32C576.75 68.59 575.02 66.21 572.95 64.18C572.53 63.78 572.1 63.39 571.66 63.01C571.44 62.82 571.21 62.6401 570.98 62.4501C570.53 62.0901 570.05 61.7401 569.57 61.4001C569.33 61.2401 569.08 61.07 568.83 60.91C564.84 58.34 560.08 56.51 554.56 55.43C549.05 54.35 543.01 53.8 536.44 53.8C527.3 53.8 519.26 54.94 512.33 57.21C505.39 59.47 499.97 63.1101 496.08 68.1201C492.19 73.1301 490.24 79.7 490.24 87.82H515.63C515.63 82.2 517.56 78.14 521.41 75.63C525.27 73.13 530.28 71.88 536.44 71.88C541.86 71.88 546.31 73.0601 549.79 75.43C553.28 77.8 555.02 82.13 555.02 88.43V93.6101C540.74 93.8801 528.33 94.8601 517.81 96.5501C507.28 98.2401 499.14 101.39 493.39 105.99C487.64 110.6 484.76 117.47 484.76 126.61C484.76 133.24 486.38 138.74 489.63 143.11C492.88 147.47 497.1 150.74 502.27 152.9C507.45 155.07 512.99 156.15 518.88 156.15C526.93 156.15 533.87 154.81 539.69 152.14C545.15 149.63 550.05 146.34 554.37 142.26C554.66 141.98 554.94 141.71 555.22 141.43L556.14 154.43H581.42V87.92C581.42 81.22 580.32 75.69 578.12 71.32ZM554.62 124.88C551.77 128.4 548.03 131.38 543.4 133.81C538.76 136.25 533.39 137.47 527.3 137.47C522.29 137.47 518.43 136.34 515.73 134.07C513.02 131.8 511.67 128.7 511.67 124.78C511.67 119.16 514.86 115.07 521.26 112.49C527.66 109.92 538.78 108.53 554.62 108.33V124.88Z" fill="#004F2A"/>
<path d="M465.16 55.3301L424.45 154.43H393.58L352.97 55.3301H381.2L409.11 131.73L437.75 55.3301H465.16Z" fill="#004F2A"/>
</g>
<defs>
<clipPath id="clip0_331_13">
<rect width="605.76" height="211.43" fill="white"/>
</clipPath>
</defs>
</svg>
